<svg width="24" height="24" viewBox="0 0 24 24" fill="none" xmlns="http://www.w3.org/2000/svg">
<path d="M2 8.3125L1.67617 8.69347L1.22798 8.3125L1.67617 7.93153L2 8.3125ZM8.25 20.5C7.97386 20.5 7.75 20.2761 7.75 20C7.75 19.7239 7.97386 19.5 8.25 19.5L8.25 20.5ZM7.92618 14.006L1.67617 8.69347L2.32382 7.93153L8.57383 13.244L7.92618 14.006ZM1.67617 7.93153L7.92618 2.61903L8.57382 3.38097L2.32382 8.69347L1.67617 7.93153ZM2 7.8125L16.1563 7.8125L16.1563 8.8125L2 8.8125L2 7.8125ZM16.1563 20.5L8.25 20.5L8.25 19.5L16.1563 19.5L16.1563 20.5ZM22.5 14.1562C22.5 17.6598 19.6598 20.5 16.1563 20.5L16.1563 19.5C19.1075 19.5 21.5 17.1075 21.5 14.1562L22.5 14.1562ZM16.1563 7.8125C19.6598 7.8125 22.5 10.6527 22.5 14.1562L21.5 14.1562C21.5 11.205 19.1075 8.8125 16.1563 8.8125L16.1563 7.8125Z" fill="white"/>
</svg>
